<?xml version="1.0" encoding="utf-8"?>
<!-- Generator: Adobe Illustrator 24.3.0, SVG Export Plug-In . SVG Version: 6.00 Build 0)  -->
<svg version="1.1" id="Layer_1" xmlns="http://www.w3.org/2000/svg" xmlns:xlink="http://www.w3.org/1999/xlink" x="0px" y="0px"
	 viewBox="0 0 546.2 84.1" style="enable-background:new 0 0 546.2 84.1;" xml:space="preserve">
<style type="text/css">
	.st0{fill:#FFFFFF;}
</style>
<g>
	<path class="st0" d="M538.5,61.4h-12.7v2.2h5.2v13.9h2.3V63.6h5.2V61.4z M495.4,61.4h-11.7v16h11.8v-2.1H486v-4.9h8.4v-2.1H486
		v-4.7h9.4V61.4z M450,61.4h-11.7v16h11.8v-2.1h-9.6v-4.9h8.4v-2.1h-8.4v-4.7h9.4V61.4z M397.1,71.2l3.1-7l3.1,7H397.1z M392.2,77
		l-0.2,0.4h2.4l1.8-4.1h8.1l1.8,4.1h2.5l-7.2-16l-0.1-0.2h-2L392.2,77z M351.4,71.2l3.1-7l3.1,7H351.4z M353.5,61.3l-7.3,16.1h2.4
		l1.8-4.1h8.1l1.8,4.1h2.5l-7.2-16l-0.1-0.2H353.5z M325.5,61.4h-2.2v16h2.2V65.5l5.4,7.9l5.4-8v11.9h2.3v-16h-2.2l-5.5,8.2
		L325.5,61.4z M293.8,71.2l3.1-7l3.1,7H293.8z M288.8,77l-0.2,0.4h2.4l1.8-4.1h8.1l1.8,4.1h2.5l-7.2-16l-0.1-0.2h-2L288.8,77z
		 M255.8,71.2l3.1-7l3.1,7H255.8z M258,61.3l-7.3,16.1h2.4l1.8-4.1h8.1l1.8,4.1h2.5l-7.2-16l-0.1-0.2H258z M232.9,63.6h3.4
		c3.6,0,6.1,2.4,6.1,5.9c0,3.4-2.5,5.8-6.1,5.8h-3.4V63.6z M236.2,61.4h-5.6v16h5.6c4.9,0,8.5-3.4,8.5-8
		C244.7,64.8,241.2,61.4,236.2,61.4 M204.6,63.6c2.3,0,3.7,1,3.7,2.8c0,1.8-1.5,2.9-3.7,2.9h-4.5v-5.7H204.6z M204.7,61.4h-6.9v16
		h2.3v-6h4l4.4,5.9l0.1,0.1h2.8l-4.8-6.4c2.5-0.6,4-2.3,4-4.7C210.6,63.3,208.3,61.4,204.7,61.4 M189.3,61.4h-11.7v16h11.8v-2.1
		h-9.6v-4.9h8.4v-2.1h-8.4v-4.7h9.4V61.4z M169.7,61.4H157v2.2h5.2v13.9h2.3V63.6h5.2V61.4z M139,73.2l-1.4,1.7l0.2,0.2
		c1.9,1.7,4,2.5,6.5,2.5c3.3,0,5.6-1.9,5.6-4.7c0-2.5-1.6-3.9-5.3-4.7c-3.4-0.7-4-1.5-4-2.8c0-1.3,1.2-2.3,3-2.3
		c1.6,0,2.9,0.5,4.3,1.6l0.2,0.2l1.3-1.8l-0.2-0.2c-1.7-1.4-3.4-2-5.6-2c-3.1,0-5.4,1.9-5.4,4.5c0,2.1,0.9,3.8,5.4,4.8
		c3.2,0.7,3.8,1.4,3.8,2.7c0,1.4-1.3,2.4-3.2,2.4c-2,0-3.5-0.6-5.1-2.1L139,73.2z M119.5,71.2l3.1-7l3.1,7H119.5z M121.7,61.3
		l-7.3,16.1h2.4l1.8-4.1h8.1l1.8,4.1h2.5l-7.3-16.1H121.7z M94.5,61.4h-2.2v16h2.2V65.5l5.4,7.9l5.4-8v11.9h2.3v-16h-2.2l-5.5,8.2
		L94.5,61.4z M71,66.7h5.3v-5.3H71V66.7z M6.9,77.4h69.4v-5.3H12.3V13.4H71v42.7h5.3V8H6.9V77.4z M124,35.6v-0.1
		c0-7.4-5.7-10.3-14.8-12.3c-5.5-1.2-6.8-2-6.8-3.8v-0.1c0-1.4,1.3-2.5,4-2.5c3.5,0,7.5,1.4,11.1,3.9l5.5-7.7
		c-4.3-3.4-9.6-5.3-16.3-5.3c-9.5,0-15.3,5.3-15.3,12.7v0.1c0,8.1,6.5,10.5,14.9,12.4c5.4,1.2,6.7,2.1,6.7,3.8v0.1
		c0,1.7-1.6,2.7-4.5,2.7c-4.6,0-8.9-1.6-12.8-4.7l-6.1,7.3c4.9,4.4,11.5,6.6,18.5,6.6C117.6,48.5,124,43.7,124,35.6 M149.4,17.9
		h11.9V8.2h-34.7v9.6h11.9v30h11V17.9z M167.3,47.8h11V8.2h-11V47.8z M210.6,35.4c0,2.3-1.9,3.6-5.3,3.6h-8.5v-7.3h8.4
		c3.7,0,5.4,1.4,5.4,3.6V35.4z M208.9,20.6c0,2.3-1.9,3.4-5.2,3.4h-6.9v-7h7.1c3.3,0,5,1.2,5,3.4V20.6z M221.6,36.9v-0.1
		c0-5.4-3.1-8.1-7.9-9.7c3.5-1.5,6.1-4.2,6.1-8.8v-0.1c0-2.7-1-4.8-2.5-6.4c-2.3-2.3-5.8-3.6-10.8-3.6h-20.3v39.6h20.4
		C216,47.8,221.6,43.7,221.6,36.9 M256.2,28.1c0,5.7-4,10.6-10.1,10.6c-6,0-10.1-5-10.1-10.7v-0.1c0-5.7,4-10.6,10-10.6
		c6.1,0,10.2,5,10.2,10.7V28.1z M267.4,28v-0.1c0-11.4-9-20.5-21.3-20.5c-12.2,0-21.4,9.2-21.4,20.6v0.1c0,11.4,9,20.5,21.3,20.5
		C258.3,48.6,267.4,39.4,267.4,28 M284.5,61.4h-12.7v2.2h5.2v13.9h2.3V63.6h5.2V61.4z M309.2,37.5v-0.1c0-5.9-3.9-9.3-13.2-11.2
		c-9.4-1.9-11.2-4.4-11.2-8.3v-0.1c0-4.1,3.9-7.1,9.3-7.1c4.5,0,8.1,1.3,11.6,4.4l0.2,0.2l2.3-2.8l-0.2-0.2
		c-4.4-3.5-8.2-4.9-13.7-4.9c-7.4,0-13,4.6-13,10.7v0.1c0,6.1,3.9,9.5,13.5,11.4c9.2,1.8,10.9,4.3,10.9,8.1v0.1c0,4.4-4,7.5-9.7,7.5
		c-5.5,0-9.4-1.6-13.9-5.8l-0.2-0.2l-2.3,2.7l0.2,0.2c4.9,4.4,9.9,6.4,16.1,6.4C303.7,48.6,309.2,44.1,309.2,37.5 M333.3,32.2
		L350.5,8h-4.3L331.6,29L317.1,8.1L317,8h-4.4l17.2,24.2v15.8h3.6V32.2z M382.2,37.5v-0.1c0-5.9-3.9-9.3-13.2-11.2
		c-9.4-1.9-11.2-4.4-11.2-8.3v-0.1c0-4.1,3.9-7.1,9.3-7.1c4.5,0,8.1,1.3,11.6,4.4l0.2,0.2l2.3-2.8l-0.2-0.2
		c-4.4-3.5-8.2-4.9-13.7-4.9c-7.4,0-13,4.6-13,10.7v0.1c0,6.1,3.9,9.5,13.5,11.4c9.2,1.8,10.9,4.3,10.9,8.1v0.1c0,4.4-4,7.5-9.7,7.5
		c-5.5,0-9.4-1.6-13.9-5.8l-0.2-0.2l-2.3,2.7l0.2,0.2c4.9,4.4,9.9,6.4,16.1,6.4C376.7,48.6,382.2,44.1,382.2,37.5 M382.3,77.4h1.8
		v-16h-2.2v11.9l-9.3-11.8l-0.1-0.1h-2v16h2.2V65.2l9.5,12.1L382.3,77.4z M404.9,11.3h13.7V8h-31v3.3h13.7v36.7h3.6V11.3z
		 M428.5,63.3c-1.8-1.5-3.5-2.1-5.9-2.1c-4.5,0-8,3.6-8,8.3c0,4.9,3.3,8.3,8.1,8.3c3.2,0,5.4-1.5,6.4-2.4l0.1-0.1v-6.6h-6.9v2.1h4.7
		v3.4c-1.1,0.9-2.7,1.4-4.2,1.4c-3.5,0-5.9-2.5-5.9-6.2c0-3.4,2.5-6.1,5.6-6.1c2.3,0,3.5,0.8,4.5,1.7l0.2,0.2l1.5-1.7L428.5,63.3
		L428.5,63.3z M426.7,48.1h28.9v-3.3h-25.4V29.5h22.6v-3.3h-22.6V11.3h25.1V8h-28.7V48.1z M466.4,69.6l-5.5-8.2h-2.2v16h2.2V65.5
		l5.4,7.9l5.4-8v11.9h2.3v-16h-2.2L466.4,69.6z M499.4,48.1h3.6V8h-3.2L484,31.1L468.4,8h-3.2v40h3.4V14.5L484,36.9l15.4-22.4V48.1z
		 M515.4,73.3l-9.3-11.8l-0.1-0.1h-2v16h2.2V65.2l9.5,12.1l0.1,0.1h1.8v-16h-2.2V73.3z M516.3,18v-0.1c0-4.1,3.9-7.1,9.3-7.1
		c4.5,0,8.1,1.3,11.6,4.4l0.2,0.2l2.3-2.8l-0.2-0.2c-4.4-3.5-8.2-4.9-13.7-4.9c-7.4,0-13,4.6-13,10.7v0.1c0,6.1,3.9,9.5,13.5,11.4
		c9.2,1.8,10.9,4.3,10.9,8.1v0.1c0,4.4-4,7.5-9.7,7.5c-5.5,0-9.4-1.6-13.9-5.8l-0.2-0.2l-2.3,2.7l0.2,0.2c4.9,4.4,9.9,6.4,16.1,6.4
		c7.9,0,13.4-4.6,13.4-11.1v-0.1c0-5.9-3.9-9.3-13.2-11.2C518.1,24.3,516.3,21.9,516.3,18"/>
</g>
</svg>
